<?xml version="1.0" encoding="UTF-8" standalone="no"?>
<!-- Created with Inkscape (http://www.inkscape.org/) -->

<svg
   width="179"
   height="216"
   viewBox="0 0 47.360417 57.15"
   version="1.1"
   id="svg1"
   xml:space="preserve"
   inkscape:version="1.3.2 (091e20e, 2023-11-25, custom)"
   sodipodi:docname="cucho-cara.svg"
   xmlns:inkscape="http://www.inkscape.org/namespaces/inkscape"
   xmlns:sodipodi="http://sodipodi.sourceforge.net/DTD/sodipodi-0.dtd"
   xmlns="http://www.w3.org/2000/svg"
   xmlns:svg="http://www.w3.org/2000/svg"><sodipodi:namedview
     id="namedview1"
     pagecolor="#ffffff"
     bordercolor="#000000"
     borderopacity="0.25"
     inkscape:showpageshadow="2"
     inkscape:pageopacity="0.0"
     inkscape:pagecheckerboard="0"
     inkscape:deskcolor="#d1d1d1"
     inkscape:document-units="px"
     inkscape:zoom="3.9156335"
     inkscape:cx="146.97494"
     inkscape:cy="103.81462"
     inkscape:window-width="1920"
     inkscape:window-height="991"
     inkscape:window-x="-9"
     inkscape:window-y="-9"
     inkscape:window-maximized="1"
     inkscape:current-layer="layer1-4" /><defs
     id="defs1" /><g
     inkscape:label="Capa 1"
     inkscape:groupmode="layer"
     id="layer1"><g
       inkscape:label="Capa 1"
       id="layer1-4"
       transform="matrix(0.39813092,0,0,0.42617439,52.862883,41.079573)"><g
         inkscape:label="Capa 1"
         id="layer1-1"
         transform="matrix(1.2466299,0,0,1.117355,-18.860903,-67.004433)"><rect
           style="fill:#ff7f2a;stroke-width:0.252081"
           id="rect111"
           width="49.027447"
           height="71.40583"
           x="16.570253"
           y="7.1747484"
           ry="7.1724606" /><rect
           style="fill:#71c837;stroke-width:0.167994"
           id="rect193"
           width="49.198273"
           height="31.603062"
           x="16.399426"
           y="40.827736"
           ry="3.1744146"
           rx="0" /><rect
           style="fill:#71c837;stroke-width:0.167994"
           id="rect299"
           width="49.198273"
           height="31.603062"
           x="16.570253"
           y="48.344139"
           ry="6.7617898"
           rx="13.324533" /><ellipse
           style="fill:#ffffff;stroke-width:0.460897"
           id="ellipse301"
           cx="28.186514"
           cy="27.503202"
           rx="6.1497846"
           ry="7.5164032" /><ellipse
           style="fill:#ffffff;stroke-width:0.460897"
           id="ellipse357"
           cx="56.71468"
           cy="28.015684"
           rx="6.1497846"
           ry="7.5164032" /><ellipse
           style="fill:#000000;stroke-width:0.341771"
           id="ellipse359"
           cx="28.869822"
           cy="27.076134"
           rx="4.4415112"
           ry="5.7227163" /><ellipse
           style="fill:#000000;stroke-width:0.341771"
           id="ellipse361"
           cx="56.202198"
           cy="27.417788"
           rx="4.4415112"
           ry="5.7227163" /><path
           sodipodi:type="star"
           style="fill:#ff2a2a;stroke-width:0.264583"
           id="path467"
           inkscape:flatsided="true"
           sodipodi:sides="3"
           sodipodi:cx="40.827736"
           sodipodi:cy="35.702915"
           sodipodi:r1="5.7424417"
           sodipodi:r2="2.8712211"
           sodipodi:arg1="-2.6113769"
           sodipodi:arg2="-1.5641793"
           inkscape:rounded="0"
           inkscape:randomized="0"
           d="m 35.873743,32.798851 9.945983,0.06581 -5.029987,8.580567 z"
           inkscape:transform-center-x="-0.016712623"
           inkscape:transform-center-y="0.74621707"
           transform="matrix(0.87977137,0,0,0.52582974,6.7046316,17.089684)" /><rect
           style="fill:#ff7f2a;stroke-width:0.838851"
           id="rect573"
           width="20.157627"
           height="11.787086"
           x="25.005768"
           y="-5.8258715"
           ry="5.8935432"
           transform="rotate(31.451302)" /><rect
           style="fill:#ff7f2a;stroke-width:0.838851"
           id="rect783"
           width="20.157627"
           height="11.787086"
           x="4.1304131"
           y="50.896343"
           ry="5.8935432"
           transform="rotate(-58.548698)" /><path
           style="fill:#241f1c;stroke-width:0.264583"
           d="m 24.086655,3.0748922 c 0.284712,0 0.580379,-0.078217 0.854137,0 0.15486,0.044246 0.212808,0.24502 0.341654,0.3416546 0.101862,0.076396 0.22777,0.1138849 0.341655,0.1708274 0.341655,0.2277698 0.700842,0.4312143 1.024965,0.6833093 0.190696,0.1483198 0.319212,0.3675303 0.512482,0.512482 0.23228,0.1742104 0.61255,0.00977 0.854136,0.1708274 1.366948,0.9112988 2.23244,3.1099477 2.733238,4.6123381 0.146497,0.439492 -0.05371,0.746715 0.170826,1.195791"
           id="path902" /><path
           style="fill:#241f1c;stroke-width:0.264583"
           d="m 40.144424,10.762122 c 0.292902,-1.7341578 -0.770308,-0.087 -1.024964,-0.341654 -0.364437,-0.364438 0.412441,-2.9163405 0.512482,-3.4165469 0.0335,-0.1675101 -0.04693,-0.3482277 0,-0.5124821 0.268968,-0.9413806 1.033928,-1.730685 1.366621,-2.5624102 0.06687,-0.1671888 0.127153,-0.3377906 0.170825,-0.512482 0.02762,-0.1104847 -0.08053,-0.261126 0,-0.3416546 0.04027,-0.040264 0.130564,0.040264 0.170829,0 0.04026,-0.040264 -0.02545,-0.1198965 0,-0.1708274 0.136662,-0.2733238 0.546647,-0.4099856 0.68331,-0.6833094 0.02545,-0.050931 -0.04026,-0.1305629 0,-0.1708273 0.04026,-0.040264 0.113884,0 0.170825,0"
           id="path904" /><path
           style="fill:#241f1c;stroke-width:0.264583"
           d="m 55.860539,9.9079858 c 0.05694,-0.3985971 0.0042,-0.829238 0.170828,-1.1957915 0.582208,-1.2808582 4.729004,-3.3220204 5.808131,-3.9290288 1.280618,-0.7203472 2.493767,-1.7628759 3.929028,-2.0499282"
           id="path906" /><path
           style="fill:#241f1c;stroke-width:0.264583"
           d="m 33.823814,4.0998563 c 0.22777,0.056942 0.517295,0.00481 0.683308,0.1708272 0.216831,0.2168305 0.217114,0.5739214 0.341656,0.8541366 0.778521,1.7516726 0.410364,2.8706569 1.19579,4.4415109"
           id="path914" /><path
           style="fill:#241f1c;stroke-width:0.264583"
           d="m 18.278526,5.978957 c 2.13544,-0.039127 3.962247,1.0242878 5.637302,2.2207553 0.231679,0.1654858 0.555982,0.2578277 0.683309,0.512482 0.08053,0.1610577 0.08149,0.3561395 0.170827,0.5124821 0.466225,0.8158936 0.654723,0.540376 0.854137,1.5374456 0.15516,0.7758 0,1.764433 0,2.562411"
           id="path916" /><path
           style="fill:#241f1c;stroke-width:0.264583"
           d="M 46.465037,10.24964 C 46.351152,9.9649281 46.123383,9.7021482 46.123383,9.3955038 c 0,-0.742266 0.653032,-2.0628914 0.854136,-2.7332376 0.03272,-0.1090819 -0.05093,-0.2397929 0,-0.3416546 0.07203,-0.1440543 0.252315,-0.2076466 0.341654,-0.3416546 1.152641,-1.7289626 -1.011955,0.6976861 1.36662,-1.8791007 0.410568,-0.4447815 1.19579,-0.7613124 1.19579,-1.366619"
           id="path918" /><path
           style="fill:#241f1c;stroke-width:0.264583"
           d="m 51.419029,9.566331 c 0.248415,-2.2357395 0.03111,-1.151963 0.854136,-3.7582014 0.124836,-0.395305 0.156266,-0.825009 0.341656,-1.1957913 0.155795,-0.3115884 0.421315,-0.6602957 0.512482,-1.0249641 0.02762,-0.1104847 -0.06317,-0.2468967 0,-0.3416548 0.06881,-0.1032116 0.540198,-0.3416546 0.683308,-0.3416546"
           id="path920" /><rect
           style="fill:#bcd35f;stroke-width:0.209503"
           id="rect1028"
           width="26.990721"
           height="17.766043"
           x="28.01568"
           y="53.127304"
           ry="2.3082678"
           rx="13.49536" /><rect
           style="fill:#8a916f;stroke-width:0.370087"
           id="rect1212"
           width="1.0249641"
           height="38.436153"
           x="41.340218"
           y="40.827736"
           rx="0.51248205"
           ry="0" /><rect
           style="fill:#8a916f;stroke-width:0.264583"
           id="rect1214"
           width="4.0998564"
           height="1.7082734"
           x="40.144428"
           y="50.394062"
           rx="0"
           ry="1.7082734" /><rect
           style="fill:#8a916f;stroke-width:0.264583"
           id="rect1216"
           width="4.0998564"
           height="1.7082734"
           x="39.973598"
           y="54.323093"
           rx="0"
           ry="1.7082734" /><rect
           style="fill:#8a916f;stroke-width:0.264583"
           id="rect1218"
           width="4.0998564"
           height="1.7082734"
           x="39.973598"
           y="59.960396"
           rx="0"
           ry="1.7082734" /><rect
           style="fill:#8a916f;stroke-width:0.264583"
           id="rect1220"
           width="4.0998564"
           height="1.7082734"
           x="39.631943"
           y="64.401909"
           rx="0"
           ry="1.7082734" /><rect
           style="fill:#8a916f;stroke-width:0.264583"
           id="rect1222"
           width="4.0998564"
           height="1.7082734"
           x="39.631943"
           y="64.401909"
           rx="0"
           ry="1.7082734" /></g><rect
         style="fill:#ff7f2a;fill-opacity:1;stroke:#ffcc00;stroke-width:0.674127;stroke-opacity:0"
         id="rect1"
         width="111.09789"
         height="82.259445"
         x="-128.44131"
         y="-73.504349"
         ry="13.768999" /><path
         sodipodi:type="star"
         style="fill:#ff2a2a;stroke-width:0.264583"
         id="path467-5"
         inkscape:flatsided="true"
         sodipodi:sides="3"
         sodipodi:cx="37.268514"
         sodipodi:cy="55.672475"
         sodipodi:r1="5.7424417"
         sodipodi:r2="2.8712211"
         sodipodi:arg1="-2.6113769"
         sodipodi:arg2="-1.5641793"
         inkscape:rounded="0"
         inkscape:randomized="0"
         d="m 32.31452,52.768409 9.945983,0.06581 -5.029988,8.580567 z"
         inkscape:transform-center-x="-0.016712623"
         inkscape:transform-center-y="0.74621707"
         transform="matrix(1.0967493,0,0,0.58753849,-114.96967,-47.991195)" /><path
         style="fill:#241f1c;stroke-width:0.312267"
         d="m -58.047349,-70.174108 c -0.141972,-0.318125 -0.425916,-0.611743 -0.425916,-0.954374 0,-0.829374 0.81409,-2.304982 1.064792,-3.053997 0.04079,-0.121883 -0.06349,-0.267933 0,-0.381749 0.08979,-0.16096 0.314543,-0.232015 0.425916,-0.38175 1.436917,-1.931865 -1.261533,0.779564 1.703669,-2.099622 0.511827,-0.496979 1.490708,-0.850656 1.490708,-1.526999"
         id="path918-6" /><path
         style="fill:#241f1c;stroke-width:0.312267"
         d="m -76.163392,-70.470396 c 0.365141,-1.93767 -0.960289,-0.09721 -1.27775,-0.381749 -0.454319,-0.407207 0.514161,-3.258588 0.638875,-3.817496 0.04176,-0.187168 -0.0585,-0.389094 0,-0.572624 0.335303,-1.051856 1.288925,-1.93379 1.70367,-2.863122 0.08336,-0.186809 0.158513,-0.377432 0.212956,-0.572624 0.03443,-0.123451 -0.100391,-0.291771 0,-0.38175 0.0502,-0.04499 0.162765,0.04499 0.212961,0 0.05019,-0.04499 -0.03173,-0.133967 0,-0.190875 0.170367,-0.305399 0.681466,-0.458099 0.851834,-0.763499 0.03173,-0.05691 -0.05019,-0.145885 0,-0.190875 0.05019,-0.04499 0.141971,0 0.212956,0"
         id="path904-5" /><path
         style="fill:#241f1c;stroke-width:0.312267"
         d="m -92.664617,-76.723476 c 0.283945,0.06362 0.644875,0.0054 0.851832,0.190875 0.270308,0.242276 0.270661,0.641274 0.425919,0.954373 0.970527,1.957241 0.511572,3.207543 1.490707,4.962745"
         id="path914-6" /><path
         style="fill:#241f1c;stroke-width:0.312267"
         d="m -108.75522,-79.380024 c 0.35493,0 0.72352,-0.0874 1.0648,0 0.19305,0.04944 0.26529,0.273774 0.42591,0.38175 0.12699,0.08536 0.28395,0.12725 0.42592,0.190874 0.42592,0.2545 0.87369,0.48182 1.27775,0.7635 0.23773,0.165725 0.39794,0.410661 0.63888,0.572624 0.28957,0.194655 0.76362,0.01092 1.06479,0.190875 1.70408,1.018244 2.78302,3.474915 3.40733,5.153619 0.18263,0.491068 -0.067,0.834346 0.21296,1.336123"
         id="path902-7" /><path
         style="fill:#241f1c;stroke-width:0.312267"
         d="m -122.12802,-78.042703 c 2.6621,-0.04372 4.93945,1.144494 7.02763,2.481373 0.28881,0.184906 0.6931,0.288085 0.85183,0.572624 0.10039,0.179958 0.10159,0.397934 0.21296,0.572624 0.58121,0.911643 0.8162,0.603792 1.06479,1.717873 0.19343,0.866844 0,1.971498 0,2.863123"
         id="path916-4" /><path
         style="fill:#241f1c;stroke-width:0.312267"
         d="m -46.199843,-70.700771 c 0.309682,-2.498115 0.03878,-1.287152 1.064791,-4.199245 0.155625,-0.441696 0.194806,-0.921828 0.425919,-1.336124 0.194219,-0.348155 0.525224,-0.737784 0.638875,-1.145249 0.03443,-0.12345 -0.07875,-0.275871 0,-0.381749 0.08578,-0.115324 0.673427,-0.38175 0.851833,-0.38175"
         id="path920-0" /><path
         style="fill:#241f1c;stroke-width:0.312267"
         d="m -35.751352,-71.456675 c 0.07098,-0.445374 0.0052,-0.926553 0.212959,-1.336123 0.725798,-1.431173 5.895318,-3.711876 7.24059,-4.39012 1.596457,-0.804884 3.108805,-1.969758 4.898044,-2.290498"
         id="path906-2" /><ellipse
         style="fill:#000000;fill-rule:evenodd;stroke-width:0.642327"
         id="path1"
         cx="-102.17494"
         cy="-37.083401"
         rx="14.761301"
         ry="13.117285" /><ellipse
         style="fill:#000000;fill-rule:evenodd;stroke-width:0.642327"
         id="path1-7"
         cx="-44.443707"
         cy="-37.007259"
         rx="14.761301"
         ry="13.117285" /><rect
         style="fill:#ff7f2a;stroke-width:0.992384"
         id="rect573-0"
         width="24.447189"
         height="13.602124"
         x="-119.42639"
         y="-3.9169364"
         ry="6.8010626"
         transform="matrix(0.87687924,0.48071072,-0.56366285,0.82600496,0,0)" /><rect
         style="fill:#ff7f2a;stroke-width:0.992384"
         id="rect573-0-4"
         width="24.447189"
         height="13.602124"
         x="1.4346261"
         y="-73.765755"
         ry="6.8010626"
         transform="matrix(-0.87687924,0.48071072,0.56366285,0.82600496,0,0)" /></g></g></svg>
