<?xml version="1.0" encoding="UTF-8" standalone="no"?>
<!-- Created with Inkscape (http://www.inkscape.org/) -->

<svg
   width="302.36221"
   height="302.36221"
   viewBox="0 0 80.000002 80.000002"
   version="1.1"
   id="svg5"
   inkscape:version="1.2.2 (732a01da63, 2022-12-09)"
   sodipodi:docname="cucho.svg"
   xmlns:inkscape="http://www.inkscape.org/namespaces/inkscape"
   xmlns:sodipodi="http://sodipodi.sourceforge.net/DTD/sodipodi-0.dtd"
   xmlns="http://www.w3.org/2000/svg"
   xmlns:svg="http://www.w3.org/2000/svg">
  <sodipodi:namedview
     id="namedview7"
     pagecolor="#ffffff"
     bordercolor="#000000"
     borderopacity="0.25"
     inkscape:showpageshadow="2"
     inkscape:pageopacity="0.0"
     inkscape:pagecheckerboard="0"
     inkscape:deskcolor="#d1d1d1"
     inkscape:document-units="mm"
     showgrid="false"
     inkscape:zoom="1.5488348"
     inkscape:cx="224.68503"
     inkscape:cy="155.60084"
     inkscape:window-width="1024"
     inkscape:window-height="705"
     inkscape:window-x="-8"
     inkscape:window-y="-8"
     inkscape:window-maximized="1"
     inkscape:current-layer="layer1" />
  <defs
     id="defs2" />
  <g
     inkscape:label="Capa 1"
     inkscape:groupmode="layer"
     id="layer1">
    <rect
       style="fill:#ff7f2a;stroke-width:0.252081"
       id="rect111"
       width="49.027447"
       height="71.40583"
       x="16.570253"
       y="7.1747484"
       ry="7.1724606" />
    <rect
       style="fill:#71c837;stroke-width:0.167994"
       id="rect193"
       width="49.198273"
       height="31.603062"
       x="16.399426"
       y="40.827736"
       ry="3.1744146"
       rx="0" />
    <rect
       style="fill:#71c837;stroke-width:0.167994"
       id="rect299"
       width="49.198273"
       height="31.603062"
       x="16.570253"
       y="48.344139"
       ry="6.7617898"
       rx="13.324533" />
    <ellipse
       style="fill:#ffffff;stroke-width:0.460897"
       id="ellipse301"
       cx="28.186514"
       cy="27.503202"
       rx="6.1497846"
       ry="7.5164032" />
    <ellipse
       style="fill:#ffffff;stroke-width:0.460897"
       id="ellipse357"
       cx="56.71468"
       cy="28.015684"
       rx="6.1497846"
       ry="7.5164032" />
    <ellipse
       style="fill:#000000;stroke-width:0.341771"
       id="ellipse359"
       cx="28.869822"
       cy="27.076134"
       rx="4.4415112"
       ry="5.7227163" />
    <ellipse
       style="fill:#000000;stroke-width:0.341771"
       id="ellipse361"
       cx="56.202198"
       cy="27.417788"
       rx="4.4415112"
       ry="5.7227163" />
    <path
       sodipodi:type="star"
       style="fill:#ff2a2a;stroke-width:0.264583"
       id="path467"
       inkscape:flatsided="true"
       sodipodi:sides="3"
       sodipodi:cx="40.827736"
       sodipodi:cy="35.702915"
       sodipodi:r1="5.7424417"
       sodipodi:r2="2.8712211"
       sodipodi:arg1="-2.6113769"
       sodipodi:arg2="-1.5641793"
       inkscape:rounded="0"
       inkscape:randomized="0"
       d="m 35.873743,32.798851 9.945983,0.06581 -5.029987,8.580567 z"
       inkscape:transform-center-x="-0.016712623"
       inkscape:transform-center-y="0.74621707"
       transform="matrix(0.87977137,0,0,0.52582974,6.7046316,17.089684)" />
    <rect
       style="fill:#ff7f2a;stroke-width:0.838851"
       id="rect573"
       width="20.157627"
       height="11.787086"
       x="25.005768"
       y="-5.8258715"
       ry="5.8935432"
       transform="rotate(31.451302)" />
    <rect
       style="fill:#ff7f2a;stroke-width:0.838851"
       id="rect783"
       width="20.157627"
       height="11.787086"
       x="4.1304131"
       y="50.896343"
       ry="5.8935432"
       transform="rotate(-58.548698)" />
    <path
       style="fill:#241f1c;stroke-width:0.264583"
       d="m 24.086655,3.0748922 c 0.284712,0 0.580379,-0.078217 0.854137,0 0.15486,0.044246 0.212808,0.24502 0.341654,0.3416546 0.101862,0.076396 0.22777,0.1138849 0.341655,0.1708274 0.341655,0.2277698 0.700842,0.4312143 1.024965,0.6833093 0.190696,0.1483198 0.319212,0.3675303 0.512482,0.512482 0.23228,0.1742104 0.61255,0.00977 0.854136,0.1708274 1.366948,0.9112988 2.23244,3.1099477 2.733238,4.6123381 0.146497,0.439492 -0.05371,0.746715 0.170826,1.195791"
       id="path902" />
    <path
       style="fill:#241f1c;stroke-width:0.264583"
       d="m 40.144424,10.762122 c 0.292902,-1.7341578 -0.770308,-0.087 -1.024964,-0.341654 -0.364437,-0.364438 0.412441,-2.9163405 0.512482,-3.4165469 0.0335,-0.1675101 -0.04693,-0.3482277 0,-0.5124821 0.268968,-0.9413806 1.033928,-1.730685 1.366621,-2.5624102 0.06687,-0.1671888 0.127153,-0.3377906 0.170825,-0.512482 0.02762,-0.1104847 -0.08053,-0.261126 0,-0.3416546 0.04027,-0.040264 0.130564,0.040264 0.170829,0 0.04026,-0.040264 -0.02545,-0.1198965 0,-0.1708274 0.136662,-0.2733238 0.546647,-0.4099856 0.68331,-0.6833094 0.02545,-0.050931 -0.04026,-0.1305629 0,-0.1708273 0.04026,-0.040264 0.113884,0 0.170825,0"
       id="path904" />
    <path
       style="fill:#241f1c;stroke-width:0.264583"
       d="m 55.860539,9.9079858 c 0.05694,-0.3985971 0.0042,-0.829238 0.170828,-1.1957915 0.582208,-1.2808582 4.729004,-3.3220204 5.808131,-3.9290288 1.280618,-0.7203472 2.493767,-1.7628759 3.929028,-2.0499282"
       id="path906" />
    <path
       style="fill:#241f1c;stroke-width:0.264583"
       d="m 33.823814,4.0998563 c 0.22777,0.056942 0.517295,0.00481 0.683308,0.1708272 0.216831,0.2168305 0.217114,0.5739214 0.341656,0.8541366 0.778521,1.7516726 0.410364,2.8706569 1.19579,4.4415109"
       id="path914" />
    <path
       style="fill:#241f1c;stroke-width:0.264583"
       d="m 18.278526,5.978957 c 2.13544,-0.039127 3.962247,1.0242878 5.637302,2.2207553 0.231679,0.1654858 0.555982,0.2578277 0.683309,0.512482 0.08053,0.1610577 0.08149,0.3561395 0.170827,0.5124821 0.466225,0.8158936 0.654723,0.540376 0.854137,1.5374456 0.15516,0.7758 0,1.764433 0,2.562411"
       id="path916" />
    <path
       style="fill:#241f1c;stroke-width:0.264583"
       d="M 46.465037,10.24964 C 46.351152,9.9649281 46.123383,9.7021482 46.123383,9.3955038 c 0,-0.742266 0.653032,-2.0628914 0.854136,-2.7332376 0.03272,-0.1090819 -0.05093,-0.2397929 0,-0.3416546 0.07203,-0.1440543 0.252315,-0.2076466 0.341654,-0.3416546 1.152641,-1.7289626 -1.011955,0.6976861 1.36662,-1.8791007 0.410568,-0.4447815 1.19579,-0.7613124 1.19579,-1.366619"
       id="path918" />
    <path
       style="fill:#241f1c;stroke-width:0.264583"
       d="m 51.419029,9.566331 c 0.248415,-2.2357395 0.03111,-1.151963 0.854136,-3.7582014 0.124836,-0.395305 0.156266,-0.825009 0.341656,-1.1957913 0.155795,-0.3115884 0.421315,-0.6602957 0.512482,-1.0249641 0.02762,-0.1104847 -0.06317,-0.2468967 0,-0.3416548 0.06881,-0.1032116 0.540198,-0.3416546 0.683308,-0.3416546"
       id="path920" />
    <rect
       style="fill:#bcd35f;stroke-width:0.209503"
       id="rect1028"
       width="26.990721"
       height="17.766043"
       x="28.01568"
       y="53.127304"
       ry="2.3082678"
       rx="13.49536" />
    <rect
       style="fill:#8a916f;stroke-width:0.370087"
       id="rect1212"
       width="1.0249641"
       height="38.436153"
       x="41.340218"
       y="40.827736"
       rx="0.51248205"
       ry="0" />
    <rect
       style="fill:#8a916f;stroke-width:0.264583"
       id="rect1214"
       width="4.0998564"
       height="1.7082734"
       x="40.144428"
       y="50.394062"
       rx="0"
       ry="1.7082734" />
    <rect
       style="fill:#8a916f;stroke-width:0.264583"
       id="rect1216"
       width="4.0998564"
       height="1.7082734"
       x="39.973598"
       y="54.323093"
       rx="0"
       ry="1.7082734" />
    <rect
       style="fill:#8a916f;stroke-width:0.264583"
       id="rect1218"
       width="4.0998564"
       height="1.7082734"
       x="39.973598"
       y="59.960396"
       rx="0"
       ry="1.7082734" />
    <rect
       style="fill:#8a916f;stroke-width:0.264583"
       id="rect1220"
       width="4.0998564"
       height="1.7082734"
       x="39.631943"
       y="64.401909"
       rx="0"
       ry="1.7082734" />
    <rect
       style="fill:#8a916f;stroke-width:0.264583"
       id="rect1222"
       width="4.0998564"
       height="1.7082734"
       x="39.631943"
       y="64.401909"
       rx="0"
       ry="1.7082734" />
  </g>
</svg>
